<svg xmlns="http://www.w3.org/2000/svg" version="1.1" xmlns:xlink="http://www.w3.org/1999/xlink" width="2000" height="1500" viewBox="0 0 2000 1500"><rect width="2000" height="1500" x="0" y="0" id="background" stroke="transparent" fill="#000000"></rect><svg xml:space="preserve" width="1500" height="1125" data-version="2" data-id="lg_yMAdEpwnMYf6bmpZMS" viewBox="0 0 576 215" x="250" y="187.5"><rect width="100%" height="100%" fill="transparent"></rect><path fill="#fff" d="m59.305 124.351 24.37-.12q0 .12.13 1.87l-10.63 1-30.37 35.38 37 47 5.87.37q0 .13-.12 1.88l-13.5.12-36.13-45.62-.12-.13v43.25l8.5.5q0 .13-.13 1.88l-25 .12q0-1.12.13-1.75l6.5-.87q1.25-.13 1.5-1.63v-79.12q-.5-1.5-1.5-1.63l-6.5-.62q-.13-.75-.13-1.88l25-.12q0 .12.13 1.87l-8.5.75v39.13l.25-.13 30.62-36.62q1-2-.75-2.38l-6.5-.62q-.12-.75-.12-1.88m-23.5 41.75v-.12z"></path><rect width="66.5" height="87.62" x="-33.25" y="-43.81" fill="none" rx="0" ry="0" transform="translate(52.92 168.54)"></rect><path fill="#fff" d="m143.675 124.351 23.75-.12q0 .12.13 1.87l-7.88.88v82.37l9.13.5q0 .13-.13 1.88l-25 .12q0-1.12.13-1.75l6.5-.87q1.25-.13 1.5-1.63v-38h-42.63v39.75l9.25.5q0 .13-.12 1.88l-25.13.12.13-1.75 6.5-.87q1.25-.13 1.5-1.5v-79.25q-.25-1.5-1.5-1.63l-6.5-.62-.13-1.88 25.13-.12q0 .12.12 1.87l-9.25.88v40.12h42.63v-38.5q-.25-1.62-1.5-1.75l-6.5-.62q-.13-.75-.13-1.88"></path><rect width="75.63" height="87.62" x="-37.81" y="-43.81" fill="none" rx="0" ry="0" transform="translate(131.49 168.54)"></rect><path fill="#fff" d="m200.805 211.731-25.13.12.13-1.75 6.5-.87q.87-.13 1.5-1.63l27-83.37h8.25l28.75 85.12 8.62.5q0 .13-.12 1.88l-25 .12q0-1.12.12-1.75l6.5-.87q1-.13 1-1.5l-6.87-20.38h-39l-6.63 21.75 14.5.75q0 .13-.12 1.88m30.37-26.88-19.5-58.25-17.87 58.25z"></path><rect width="80.75" height="87.62" x="-40.38" y="-43.81" fill="none" rx="0" ry="0" transform="translate(216.55 168.54)"></rect><path fill="#fff" d="m270.055 126.851-6.63-.75.13-1.87h30.37q12.88 0 19.88 5.62 7 5.63 7 16.75 0 7.25-5.57 15.13-5.56 7.87-10.43 10.12l23.12 37.63 6.13.37q0 .13-.13 1.88l-13.62.12-23.75-38.5h-16.63v36l8.75.5q0 .13-.12 1.88l-25.13.12.13-1.75 6.5-.87q.87-.13 1.37-1.13v-80q-.37-1.12-1.37-1.25m23.25-.75h-13.38v45.38h21.38q6.5-7.38 8.75-13.06 2.25-5.69 2.25-11.07 0-10.5-4.88-15.87-4.87-5.38-14.12-5.38"></path><rect width="70.63" height="87.62" x="-35.31" y="-43.81" fill="none" rx="0" ry="0" transform="translate(299.24 168.54)"></rect><path fill="#fff" d="m363.555 211.731-25.13.12.13-1.75 6.5-.87q.87-.13 1.5-1.63l27-83.37h8.25l28.75 85.12 8.62.5q0 .13-.12 1.88l-25 .12q0-1.12.12-1.75l6.5-.87q1-.13 1-1.5l-6.87-20.38h-39l-6.63 21.75 14.5.75q0 .13-.12 1.88m30.37-26.88-19.5-58.25-17.87 58.25z"></path><rect width="80.75" height="87.62" x="-40.38" y="-43.81" fill="none" rx="0" ry="0" transform="translate(379.3 168.54)"></rect><path fill="#fff" d="m432.675 126.851-6.62-.75.12-1.87h53.5l-.12.37 1.62 17.63-2.5 1-2-16.5h-34v40.37h29.88q.62.13 1.12-.31.5-.44.5-1.19l.5-8.62 2-.25v21.37q-.12 0-1.87.13l-.5-8.63h-31.63v39.75l8.63.5q0 .13-.13 1.88l-25.12.12.12-1.75 6.5-.87q1.25-.13 1.5-1.63v-79.12q-.25-1.5-1.5-1.63"></path><rect width="55.12" height="87.62" x="-27.56" y="-43.81" fill="none" rx="0" ry="0" transform="translate(454.12 168.54)"></rect><path fill="#fff" d="m490.555 124.351 25-.12q0 .12.12 1.87l-8.5.75v47.25q0 21.75 7.63 28.88 3.62 3.5 7.37 4.81 3.75 1.31 8.81 1.31 5.07 0 9.19-1.37 4.13-1.38 8-5 8.25-7.5 8.25-28.63v-45.25q-.25-1.62-1.5-1.75l-9-.87q-.12-.75-.12-1.88l23.75-.12q0 .12.12 1.87l-10.37 1.13v47q0 38-28.38 38-6.87 0-12.06-1.44t-10.06-5.31q-10.13-7.88-10.13-31.25v-45.75q-.5-1.5-1.5-1.63l-6.5-.62q-.12-.75-.12-1.88"></path><rect width="79.12" height="88" x="-39.56" y="-44" fill="none" rx="0" ry="0" transform="translate(530.62 168.73)"></rect><path fill="#fff" stroke="#fff" stroke-width="3.43" d="M7.036 85.095h554.5"></path><ellipse fill="#fff" rx="21.1" ry="22.2" transform="translate(290.56 22.4)scale(.9295)"></ellipse><path fill="#fff" d="M287.487 45.828h-41.084V82.45h54.376v-3.904h-13.292zm30.116 21.564a7.498 7.498 0 0 0-7.529 7.53v.743c0 .093 0 .279.093.372 0 .093 0 .279.093.372 0 .185.093.371.093.464 0 .093 0 .186.093.186.093.186.093.372.186.558v.093c.093.186.186.372.279.65 1.301 2.417 3.718 3.997 6.692 3.997 3.997 0 7.343-3.16 7.53-7.157v-.372c0-4.09-3.44-7.436-7.53-7.436"></path><path fill="#fff" d="M330.059 68.787c-2.324-18.497-26.305-24.446-29.187-25.097l-10.038 7.9-.744-.65v25.097h13.292v5.67c2.138-.28 4.183-.558 6.042-1.023a10.001 10.001 0 0 1 8.18-15.801c5.111 0 9.387 3.904 9.945 8.83.093-.093.279-.186.372-.279a5.016 5.016 0 0 0 2.137-4.647"></path></svg></svg>